<svg width="374" height="373" viewBox="0 0 374 373" fill="none" xmlns="http://www.w3.org/2000/svg">
<path d="M139.541 296.992C134.848 272.862 152.251 217.749 161.539 193.208C164.635 194.667 190.544 189.64 198.854 177.641C205.503 168.041 216.794 164.27 222.319 162.559C229.651 160.289 241.873 160.613 244.154 166.127L246.598 171.803C254.583 194.667 247.63 229.424 242.687 244.938L224.437 248.181C210.619 225.868 217.702 198.668 222.971 187.857C217.365 195.381 201.625 203.316 194.455 206.343C194.129 226.289 163.495 295.046 156.814 299.424C151.469 302.927 143.072 299.262 139.541 296.992Z" fill="#FE7465"/>
<path d="M151.245 300.967L148.964 305.097M141.792 298.35L137.439 309.799L137.066 310.781C136.651 311.772 136.364 313.435 137.066 314.851C137.56 315.85 138.546 316.727 140.326 317.16C144.628 318.206 160.807 319.341 168.358 319.777C169.662 319.94 172.14 319.319 171.618 315.524C171.096 311.729 168.358 308.257 165.262 306.855C162.75 305.718 156.273 303.954 148.964 305.097L141.792 298.35ZM146.682 305.546C147.449 305.363 148.211 305.215 148.964 305.097L146.682 305.546Z" stroke="white" stroke-width="5" stroke-linecap="round"/>
<path d="M227.04 247.301C226.877 252.113 227.317 261.586 228.51 263.035C229.98 264.819 231.777 264.981 242.723 261.575C251.479 258.85 254.975 258.817 257.099 258.493C258.569 258.268 260.366 258.071 260.366 254.438C260.366 249.897 258.569 246.815 253.015 246.166C248.571 245.647 242.233 248.329 239.619 249.734V245.355" stroke="white" stroke-width="5" stroke-linecap="round"/>
<path d="M206.128 84.0439C189.346 85.733 156.37 92.8524 158.716 107.816C159.076 109.087 160.11 111.114 162.036 113.021C163.891 114.858 166.575 116.583 170.284 117.413" stroke="white" stroke-width="5" stroke-linecap="round"/>
<path d="M162.037 113.021C167.285 121.154 182.668 138.818 202.219 144.413" stroke="white" stroke-width="5" stroke-linecap="round"/>
<path d="M202.094 144.413C203.289 142.814 206.43 139.923 210.117 139.786" stroke="white" stroke-width="5" stroke-linecap="round"/>
<path d="M210.116 139.786C210.007 135.219 206.139 123.442 191.536 112.868" stroke="white" stroke-width="5" stroke-linecap="round"/>
<path d="M187.313 116.654C188.829 114.21 193.485 109.021 199.982 107.821" stroke="white" stroke-width="5" stroke-linecap="round"/>
<path d="M223.628 112.027C224.331 112.856 225.739 115.109 225.739 117.495" stroke="white" stroke-width="5" stroke-linecap="round"/>
<path d="M223.462 146.941C226.79 146.779 233.739 146.293 234.918 145.644C236.391 144.834 236.718 144.834 236.718 143.213C236.718 141.593 223.462 144.348 223.462 139.162C224.662 137.973 226.604 135.304 224.771 134.137C222.938 132.971 219.098 136.353 217.407 138.189C215.661 140.026 211.744 142.922 210.042 139.81" stroke="white" stroke-width="5" stroke-linecap="round"/>
<path d="M202.515 144.348C203.988 148.615 209.29 156.276 218.716 152.775C228.143 149.274 228.536 147.427 227.554 146.941" stroke="white" stroke-width="5" stroke-linecap="round"/>
<path d="M283.7 146.164C285.991 145.54 290.998 142.639 292.7 136.024C294.401 129.408 292.1 129.376 290.736 130.186" stroke="white" stroke-width="5" stroke-linecap="round"/>
<path d="M275.192 141.375C275.901 137.699 278.4 130.608 282.719 131.646" stroke="white" stroke-width="5" stroke-linecap="round"/>
<path d="M276.991 135.375C273.98 132.91 272.137 138.564 271.591 141.699C268.188 142.736 266.901 147.644 266.683 149.969C274.558 150.773 280.155 148.666 283.7 146.164C285.87 144.632 287.27 142.951 287.954 141.699C289.645 137.213 292.11 127.851 288.445 126.295C284.779 124.738 283.754 128.24 283.7 130.186C284.092 134.597 281.791 139.483 280.591 141.375" stroke="white" stroke-width="5" stroke-linecap="round"/>
<path d="M229.54 146.888C236.63 153.482 253.986 163.329 266.683 149.969" stroke="white" stroke-width="5" stroke-linecap="round"/>
<path d="M228.272 147.777C228.272 150.839 227.512 157.816 224.472 161.236" stroke="white" stroke-width="5" stroke-linecap="round"/>
<path d="M161.978 154.928C155.286 163.924 145.918 184.258 161.978 193.622" stroke="white" stroke-width="5" stroke-linecap="round"/>
<path d="M362.132 116.233L365.932 109.924" stroke="white" stroke-width="5" stroke-linecap="round"/>
<path d="M363.99 119.531L371 119.206" stroke="white" stroke-width="5" stroke-linecap="round"/>
<path d="M362.555 123.383L366.777 128.851" stroke="white" stroke-width="5" stroke-linecap="round"/>
<path d="M224.523 321.485H110.46V377" stroke="white" stroke-width="5" stroke-linecap="round"/>
<path d="M303.829 266.132H210.49V333.822" stroke="white" stroke-width="5" stroke-linecap="round"/>
<path d="M365.51 188.541H289.794V278.956" stroke="white" stroke-width="5" stroke-linecap="round"/>
<path d="M352.13 129.482V201.203" stroke="white" stroke-width="5" stroke-linecap="round"/>
<path d="M352.13 104.457V110.555" stroke="white" stroke-width="5" stroke-linecap="round"/>
<path d="M204.221 148.423L110.742 159.133C99.9285 150.505 102.545 137.623 105.205 132.261L170.184 124.503" stroke="white" stroke-width="5" stroke-linecap="round"/>
<path d="M236.304 145.838L268.386 142.767" stroke="white" stroke-width="5" stroke-linecap="round"/>
<path d="M291.837 139.373L312.845 137.918L341.019 125.198C337.632 121.616 339.49 118.426 340.901 117.284L312.845 110.765L201.778 119.978" stroke="white" stroke-width="5" stroke-linecap="round"/>
<path d="M95.1389 132.395L104.661 131.375C98.0572 146.111 105.628 156.137 110.46 160.038L99.346 161.657C90.0565 150.389 92.4512 137.778 95.1389 132.395Z" fill="#FE7465"/>
<path d="M342.033 125.907C338.499 122.232 340.485 117.857 341.957 116.443L355.377 119.742L342.033 125.907Z" fill="#FE7465"/>
<path d="M313.149 110.765C309.644 115.197 304.736 126.786 313.149 137.683" stroke="white" stroke-width="5"/>
<path d="M232.419 86.8818C235.212 85.1696 256.224 86.82 260.309 60.4947C267.302 60.5763 271.105 54.8701 265.769 52.4282C260.08 49.5063 260.507 44.1421 261.538 40.9814C263.176 36.8364 263.275 32.4845 262.922 31.5742" stroke="white" stroke-width="5" stroke-linecap="round"/>
<path d="M254.141 50.9887C254.935 50.998 255.59 50.0443 255.604 48.8586C255.617 47.6729 254.985 46.7042 254.192 46.695C253.398 46.6857 252.744 47.6394 252.73 48.8251C252.716 50.0107 253.348 50.9794 254.141 50.9887Z" fill="#FE7465"/>
<path d="M250.24 42.2993C251.407 41.0568 254.424 39.2396 257.158 41.909" stroke="white" stroke-width="5" stroke-linecap="round"/>
<path d="M242.314 66.4902C244.459 69.7772 246.813 70.7104 251.387 68.5894" stroke="white" stroke-width="5" stroke-linecap="round"/>
<path d="M224.758 43.4512C224.261 44.538 223.845 47.0052 226.155 48.1795" stroke="white" stroke-width="5" stroke-linecap="round"/>
<path d="M200.144 32.2912C197.422 47.1193 205.936 58.2814 212.109 66.8623C218.701 63.315 229.505 54.8796 225.361 53.969C221.006 53.0122 216.412 41.1795 220.642 37.5599C225.604 33.3131 230.077 39.7387 230.93 44.6109L234.926 37.7265C233.796 32.9114 233.353 24.4649 240.621 29.2C247.89 33.9352 258.552 32.6948 262.974 31.4827C271.694 25.2661 285.241 10.7656 269.673 2.49639C256.724 -4.38131 239.874 4.31397 229.589 12.1271C222.625 10.2959 203.854 12.0736 200.144 32.2912Z" fill="#FE7465"/>
<path d="M212.593 65.8687C215.74 69.643 217.304 72.7773 217.109 79.27" stroke="white" stroke-width="5" stroke-linecap="round"/>
<path d="M209.09 87.9625C207.988 84.1335 207.342 76.8303 213.575 78.2498C221.367 80.0239 237.247 87.698 236.084 91.9518" stroke="white" stroke-width="5" stroke-linecap="round"/>
<path d="M236.086 97.9375C241.787 103.195 243.053 106.56 243.898 112.869" stroke="white" stroke-width="5" stroke-linecap="round"/>
<path d="M-31 268.468C-23.2561 267.765 -5.00884 272.364 7.18043 296.019C7.49924 296.638 8.39825 296.654 8.71584 296.035C21.2188 271.656 36.564 246.925 85.0676 276.702C85.8133 277.159 86.7917 276.33 86.4222 275.539C78.5528 258.681 74.3001 226.533 110.97 210.583C111.706 210.264 111.673 209.175 110.903 208.95L101.418 206.189C100.548 205.936 100.643 204.748 101.545 204.666C111.317 203.789 125.102 204.361 120.356 210.103C114.815 216.808 113.452 221.047 114.803 228.046" stroke="white" stroke-width="5" stroke-linecap="round"/>
</svg>
